<svg width="445.4px" height="126.35999755859375px" xmlns="http://www.w3.org/2000/svg" viewBox="27.30000000000001 11.820001220703126 445.4 126.35999755859375" style="background: none; --darkreader-inline-bgcolor: rgba(0, 0, 0, 0); --darkreader-inline-bgimage: none;" data-darkreader-inline-bgcolor="" data-darkreader-inline-bgimage="" preserveAspectRatio="xMidYMid"><defs><filter id="editing-extrusion" x="-100%" y="-100%" width="300%" height="300%"><feFlood result="color1" flood-color="#444"></feFlood><feConvolveMatrix order="8,8" divisor="1" kernelMatrix="1 0 0 0 0 0 0 0 0 1 0 0 0 0 0 0 0 0 1 0 0 0 0 0 0 0 0 1 0 0 0 0 0 0 0 0 1 0 0 0 0 0 0 0 0 1 0 0 0 0 0 0 0 0 1 0 0 0 0 0 0 0 0 1" in="SourceAlpha" result="extrude"></feConvolveMatrix><feComposite in="color1" in2="extrude" result="comp-extrude" operator="in"></feComposite><feOffset dx="4" dy="4" in="comp-extrude" result="offset-extrude"></feOffset><feMerge><feMergeNode in="offset-extrude"></feMergeNode><feMergeNode in="SourceGraphic"></feMergeNode></feMerge></filter></defs><g filter="url(#editing-extrusion)"><g transform="translate(94.12500882148743, 97.92499923706055)"><path d="M16.81-37.22L16.81-37.22L16.81-37.22Q10.56-33.56 10.56-21.56L10.56-21.56L10.56-21.56Q10.56-9.53 17.81-6.09L17.81-6.09L17.81-6.09Q20.06-5.03 23.78-5.03L23.78-5.03L23.78-5.03Q27.50-5.03 32.84-8.13L32.84-8.13L32.84-8.13Q34.28-8.97 35.25-8.97L35.25-8.97L35.25-8.97Q36.53-8.97 36.53-7.28L36.53-7.28L36.53-7.28Q36.53-6.38 35.44-4.86L35.44-4.86L35.44-4.86Q34.34-3.34 32.47-2.25L32.47-2.25L32.47-2.25Q28.06 0.31 22.34 0.31L22.34 0.31L21.34 0.31L21.34 0.31Q17.31 0.31 13.75-1.22L13.75-1.22L13.75-1.22Q6.84-4.19 4.34-12.44L4.34-12.44L4.34-12.44Q3.22-16.19 3.22-20.34L3.22-20.34L3.22-21.38L3.22-21.38Q3.22-25.88 4.53-30.25L4.53-30.25L4.53-30.25Q7.09-38.75 14.50-42.28L14.50-42.28L14.50-42.28Q18.44-44.13 23.69-44.13L23.69-44.13L23.69-44.13Q32.16-44.13 34.56-40.09L34.56-40.09L34.56-40.09Q35.56-38.41 35.56-37.13L35.56-37.13L35.56-37.13Q35.56-34.41 33.66-34.41L33.66-34.41L33.66-34.41Q33.06-34.41 30.97-35.84L30.97-35.84L30.97-35.84Q28.88-37.28 26.77-37.98L26.77-37.98L26.77-37.98Q24.66-38.69 22-38.69L22-38.69L22-38.69Q19.34-38.69 16.81-37.22ZM55.59-3.63L55.59-3.63L56.22-3.63L56.22-3.63Q59.38-3.63 61.41-6.41L61.41-6.41L61.41-6.41Q63.44-9.19 63.44-13.44L63.44-13.44L63.50-14.13L63.53-15.19L63.53-16.59L63.53-16.59Q63.53-21.25 61.64-24.27L61.64-24.27L61.64-24.27Q59.75-27.28 56.59-27.28L56.59-27.28L55.97-27.28L55.97-27.28Q52.88-27.28 50.77-24.22L50.77-24.22L50.77-24.22Q48.66-21.16 48.66-16.09L48.66-16.09L48.66-13.97L48.66-13.97Q48.72-13.22 48.72-12.94L48.72-12.94L48.72-12.94Q48.72-9.38 50.69-6.50L50.69-6.50L50.69-6.50Q52.66-3.63 55.59-3.63ZM70.59-16.16L70.59-16.16L70.59-15.13L70.59-15.13Q70.59-12.34 69.69-9.41L69.69-9.41L69.69-9.41Q67.84-3.44 62.44-0.84L62.44-0.84L62.44-0.84Q59.31 0.66 56.25 0.66L56.25 0.66L55.19 0.66L55.19 0.66Q52.28 0.66 49.78-0.53L49.78-0.53L49.78-0.53Q44.81-2.91 43.19-8.41L43.19-8.41L43.19-8.41Q42.31-11.31 42.31-14.31L42.31-14.31L42.31-15.91L42.31-15.91Q42.31-18.84 43.22-21.78L43.22-21.78L43.22-21.78Q45-27.59 50.28-30.09L50.28-30.09L50.28-30.09Q53-31.41 55.84-31.41L55.84-31.41L57.41-31.41L57.41-31.41Q60.09-31.41 62.72-30.25L62.72-30.25L62.72-30.25Q67.97-27.94 69.78-22L69.78-22L69.78-22Q70.59-19.38 70.59-16.16ZM84.31-28.03L84.31-28.03Q84.72-26.69 84.72-18.31L84.72-18.31L84.72-18.31Q84.72-9.94 85.34-8.19L85.34-8.19L85.34-8.19Q86.66-4.50 90.03-4.50L90.03-4.50L90.03-4.50Q94.16-4.50 96-7.70L96-7.70L96-7.70Q97.84-10.91 97.84-18.59L97.84-18.59L97.91-20.28L97.91-21.94L97.91-21.94Q97.91-23.63 97.67-25.38L97.67-25.38L97.67-25.38Q97.44-27.13 97.44-27.31L97.44-27.31L97.44-27.31Q97.44-28.78 98.47-29.39L98.47-29.39L98.47-29.39Q99.50-30 101.50-30L101.50-30L101.50-30Q103.50-30 104.06-28.50L104.06-28.50L104.06-28.50Q104.44-27.50 104.44-18.58L104.44-18.58L104.44-18.58Q104.44-9.66 105.41-5.66L105.41-5.66L105.41-5.66Q105.84-3.94 105.84-3.88L105.84-3.88L105.84-3.28L105.84-3.28Q105.84-2.47 104.89-1.78L104.89-1.78L104.89-1.78Q103.94-1.09 102.19-1.09L102.19-1.09L102.19-1.09Q100.44-1.09 98.81-1.86L98.81-1.86L98.81-1.86Q97.19-2.63 96.83-2.63L96.83-2.63L96.83-2.63Q96.47-2.63 93.53-1.50L93.53-1.50L93.53-1.50Q90.59-0.38 88.31-0.38L88.31-0.38L87.50-0.38L87.50-0.38Q85-0.38 82.97-1.52L82.97-1.52L82.97-1.52Q80.94-2.66 79.81-4.78L79.81-4.78L79.81-4.78Q78.16-7.94 78.16-18.19L78.16-18.19L78.16-18.19Q78.16-24.16 77.75-25.56L77.75-25.56L77.75-25.56Q77.72-25.69 77.34-26.69L77.34-26.69L77.34-26.69Q76.97-27.69 76.97-28.09L76.97-28.09L76.97-28.78L76.97-28.78Q76.97-30.50 80.22-30.50L80.22-30.50L80.97-30.50L80.97-30.50Q83.56-30.50 84.31-28.03L84.31-28.03ZM128.09-24.69L128.09-24.69L128.09-24.69Q125.16-24.69 123.53-21.77L123.53-21.77L123.53-21.77Q121.91-18.84 121.91-12.84L121.91-12.84L121.91-12.84Q121.91-10.19 122.13-9.08L122.13-9.08L122.13-9.08Q122.34-7.97 122.80-6.33L122.80-6.33L122.80-6.33Q123.25-4.69 123.25-3.48L123.25-3.48L123.25-3.48Q123.25-2.28 121.81-1.28L121.81-1.28L121.81-1.28Q120.38-0.28 118.06-0.28L118.06-0.28L117.53-0.31L116.97-0.31L116.97-0.31Q115.47-0.31 114.48-1.16L114.48-1.16L114.48-1.16Q113.50-2 113.50-3.06L113.50-3.06L113.50-3.56L113.50-3.56Q113.50-3.78 114.09-5.63L114.09-5.63L114.09-5.63Q114.69-7.47 114.78-9.19L114.78-9.19L114.78-9.19Q114.88-10.91 114.88-13.81L114.88-13.81L114.88-17.28L114.84-17.84L114.84-17.84Q114.84-18.41 114.84-18.97L114.84-18.97L114.78-20.66L114.78-20.66Q114.75-21.22 114.75-22.86L114.75-22.86L114.75-22.86Q114.75-24.50 114.17-25.98L114.17-25.98L114.17-25.98Q113.59-27.47 113.59-27.91L113.59-27.91L113.59-27.91Q113.59-29.78 116.88-29.78L116.88-29.78L116.88-29.78Q120.16-29.78 121.63-28L121.63-28L121.63-28Q122.06-27.47 122.55-27.47L122.55-27.47L122.55-27.47Q123.03-27.47 124.16-28.25L124.16-28.25L124.16-28.25Q127.28-30.38 129.41-30.38L129.41-30.38L129.91-30.38L129.91-30.38Q131.78-30.38 132.77-29.53L132.77-29.53L132.77-29.53Q133.75-28.69 133.75-27.28L133.75-27.28L133.75-27.28Q133.75-24.50 130.66-24.50L130.66-24.50L130.66-24.50Q129.44-24.69 128.09-24.69ZM141.88-17L141.88-17Q139.19-19.38 139.19-23.14L139.19-23.14L139.19-23.14Q139.19-26.91 142.41-29.30L142.41-29.30L142.41-29.30Q145.63-31.69 150.59-31.69L150.59-31.69L150.59-31.69Q155.56-31.69 157.84-30.48L157.84-30.48L157.84-30.48Q160.13-29.28 160.13-27.34L160.13-27.34L160.13-27.34Q160.13-24.69 158.41-24.69L158.41-24.69L158.41-24.69Q157.81-24.69 155.25-25.97L155.25-25.97L155.25-25.97Q152.69-27.25 150.28-27.25L150.28-27.25L150.28-27.25Q147.88-27.25 146.67-26.16L146.67-26.16L146.67-26.16Q145.47-25.06 145.47-23.34L145.47-23.34L145.47-23.34Q145.47-21.63 147.78-20.28L147.78-20.28L147.78-20.28Q148.56-19.81 152.86-18.11L152.86-18.11L152.86-18.11Q157.16-16.41 158.91-14.88L158.91-14.88L158.91-14.88Q161.63-12.47 161.63-8.63L161.63-8.63L161.63-8.63Q161.63-4.78 158.42-2.17L158.42-2.17L158.42-2.17Q155.22 0.44 150.16 0.44L150.16 0.44L150.16 0.44Q141.56 0.44 139.50-2.91L139.50-2.91L139.50-2.91Q138.84-3.97 138.84-4.78L138.84-4.78L138.84-4.78Q138.84-7.50 140.53-7.50L140.53-7.50L140.53-7.50Q141.03-7.50 144.20-5.83L144.20-5.83L144.20-5.83Q147.38-4.16 149.86-4.16L149.86-4.16L149.86-4.16Q152.34-4.16 153.78-5.22L153.78-5.22L153.78-5.22Q155.22-6.28 155.22-8.11L155.22-8.11L155.22-8.11Q155.22-9.94 152.94-11.47L152.94-11.47L152.94-11.47Q152-12.09 147.78-13.80L147.78-13.80L147.78-13.80Q143.56-15.50 141.88-17L141.88-17ZM183.06-18.41L183.06-18.41L183.06-18.41Q185.19-18.41 186.06-19.06L186.06-19.06L186.06-19.06Q186.94-19.72 186.94-20.56L186.94-20.56L186.94-21.88L186.94-21.88Q186.94-24.13 185.28-25.59L185.28-25.59L185.28-25.59Q183.63-27.06 181.66-27.06L181.66-27.06L180.84-27.06L180.84-27.06Q178-27.06 175.88-24.67L175.88-24.67L175.88-24.67Q173.75-22.28 173.75-19.44L173.75-19.44L173.75-18.91L173.75-18.91Q173.75-17.81 175.75-17.81L175.75-17.81L176.47-17.81L176.66-17.84L179-18L180.56-18.13L181.63-18.25L181.63-18.25Q181.91-18.28 182.39-18.34L182.39-18.34L182.39-18.34Q182.88-18.41 183.06-18.41ZM181.78 0.41L181.78 0.41L180.41 0.41L180.41 0.41Q174.16 0.41 170.38-3.81L170.38-3.81L170.38-3.81Q168.69-5.69 167.75-8.58L167.75-8.58L167.75-8.58Q166.81-11.47 166.81-14.31L166.81-14.31L166.81-15.72L166.81-15.72Q166.81-18.56 168-21.69L168-21.69L168-21.69Q170.28-27.78 175.75-29.97L175.75-29.97L175.75-29.97Q178.56-31.13 181.72-31.13L181.72-31.13L182.41-31.13L182.41-31.13Q186.78-31.13 189.63-28.47L189.63-28.47L189.63-28.47Q191.25-26.94 192.08-24.80L192.08-24.80L192.08-24.80Q192.91-22.66 192.91-20.94L192.91-20.94L192.91-20.94Q192.91-17.16 190.53-16L190.53-16L190.53-16Q188.91-15.22 183.11-14.53L183.11-14.53L183.11-14.53Q177.31-13.84 176.75-13.69L176.75-13.69L176.75-13.69Q174.03-13 174.03-11.25L174.03-11.25L174.03-11.25Q174.03-8.22 176.81-6.19L176.81-6.19L176.81-6.19Q178.84-4.69 182.63-4.69L182.63-4.69L182.63-4.69Q184.06-4.69 187.28-5.59L187.28-5.59L187.28-5.59Q190.50-6.50 190.81-6.50L190.81-6.50L190.81-6.50Q192.44-6.50 192.44-5.03L192.44-5.03L192.44-5.03Q192.44-3.19 188.95-1.39L188.95-1.39L188.95-1.39Q185.47 0.41 181.78 0.41ZM227.94-35.03L227.94-35.03L227.22-39.97L227.22-39.97Q227.22-41.78 228.86-42.69L228.86-42.69L228.86-42.69Q230.50-43.59 232.77-43.59L232.77-43.59L232.77-43.59Q235.03-43.59 235.98-42.81L235.98-42.81L235.98-42.81Q236.94-42.03 236.94-41.25L236.94-41.25L236.94-40.22L236.69-39.25L236.28-38.34L235.91-37.38L235.91-37.38Q235.38-35.63 235.38-26.19L235.38-26.19L235.31-21L235.31-21Q235.31-20.13 235.25-18.41L235.25-18.41L235.16-15.78L235.16-15.78Q235.06-11.84 235.06-10.14L235.06-10.14L235.06-10.14Q235.06-8.44 235.30-7.48L235.30-7.48L235.30-7.48Q235.53-6.53 236.11-5.16L236.11-5.16L236.11-5.16Q236.69-3.78 236.69-3.16L236.69-3.16L236.69-3.16Q236.69-1.47 235.61-0.88L235.61-0.88L235.61-0.88Q234.53-0.28 232.30-0.28L232.30-0.28L232.30-0.28Q230.06-0.28 228.66-1.33L228.66-1.33L228.66-1.33Q227.25-2.38 227.25-3.38L227.25-3.38L227.25-3.38Q227.25-4.38 227.52-5.67L227.52-5.67L227.52-5.67Q227.78-6.97 227.95-8.16L227.95-8.16L227.95-8.16Q228.13-9.34 228.13-13.84L228.13-13.84L228.13-13.84Q228.13-18.34 226.44-19.44L226.44-19.44L226.44-19.44Q225.25-20.22 220.88-20.22L220.88-20.22L220.88-20.22Q212.28-20.22 210.78-18.53L210.78-18.53L210.78-18.53Q209.59-17.19 209.59-10.66L209.59-10.66L209.59-10.66Q209.59-8.22 209.72-7.19L209.72-7.19L209.88-6.19L210.06-5.28L210.06-5.28Q210.25-4.22 210.25-3.27L210.25-3.27L210.25-3.27Q210.25-2.31 209.03-1.47L209.03-1.47L209.03-1.47Q207.81-0.63 205.41-0.63L205.41-0.63L205.41-0.63Q200.88-0.63 200.88-3.41L200.88-3.41L200.88-3.41Q200.88-3.47 202.03-7.28L202.03-7.28L202.03-7.28Q202.69-9.47 202.69-22.13L202.69-22.13L202.72-23.41L202.72-23.41Q202.75-25.19 202.78-26.22L202.78-26.22L202.78-26.22Q202.81-27.25 202.81-30.89L202.81-30.89L202.81-30.89Q202.81-34.53 202.58-35.72L202.58-35.72L202.58-35.72Q202.34-36.91 201.67-38.38L201.67-38.38L201.67-38.38Q201-39.84 201-40.69L201-40.69L201-40.69Q201-43.34 205.34-43.34L205.34-43.34L205.34-43.34Q207.59-43.34 208.92-42.48L208.92-42.48L208.92-42.48Q210.25-41.63 210.25-40.44L210.25-40.44L210.25-40.44Q210.25-40.16 209.94-38.25L209.94-38.25L209.94-38.25Q209.63-36.34 209.63-33.53L209.63-33.53L209.63-33.53Q209.63-27.69 211.27-26.48L211.27-26.48L211.27-26.48Q212.91-25.28 221.66-25.28L221.66-25.28L221.66-25.28Q226.25-25.28 227.09-27.02L227.09-27.02L227.09-27.02Q227.94-28.75 227.94-35.03ZM251.44-28.03L251.44-28.03Q251.84-26.69 251.84-18.31L251.84-18.31L251.84-18.31Q251.84-9.94 252.47-8.19L252.47-8.19L252.47-8.19Q253.78-4.50 257.16-4.50L257.16-4.50L257.16-4.50Q261.28-4.50 263.13-7.70L263.13-7.70L263.13-7.70Q264.97-10.91 264.97-18.59L264.97-18.59L265.03-20.28L265.03-21.94L265.03-21.94Q265.03-23.63 264.80-25.38L264.80-25.38L264.80-25.38Q264.56-27.13 264.56-27.31L264.56-27.31L264.56-27.31Q264.56-28.78 265.59-29.39L265.59-29.39L265.59-29.39Q266.63-30 268.63-30L268.63-30L268.63-30Q270.63-30 271.19-28.50L271.19-28.50L271.19-28.50Q271.56-27.50 271.56-18.58L271.56-18.58L271.56-18.58Q271.56-9.66 272.53-5.66L272.53-5.66L272.53-5.66Q272.97-3.94 272.97-3.88L272.97-3.88L272.97-3.28L272.97-3.28Q272.97-2.47 272.02-1.78L272.02-1.78L272.02-1.78Q271.06-1.09 269.31-1.09L269.31-1.09L269.31-1.09Q267.56-1.09 265.94-1.86L265.94-1.86L265.94-1.86Q264.31-2.63 263.95-2.63L263.95-2.63L263.95-2.63Q263.59-2.63 260.66-1.50L260.66-1.50L260.66-1.50Q257.72-0.38 255.44-0.38L255.44-0.38L254.63-0.38L254.63-0.38Q252.13-0.38 250.09-1.52L250.09-1.52L250.09-1.52Q248.06-2.66 246.94-4.78L246.94-4.78L246.94-4.78Q245.28-7.94 245.28-18.19L245.28-18.19L245.28-18.19Q245.28-24.16 244.88-25.56L244.88-25.56L244.88-25.56Q244.84-25.69 244.47-26.69L244.47-26.69L244.47-26.69Q244.09-27.69 244.09-28.09L244.09-28.09L244.09-28.78L244.09-28.78Q244.09-30.50 247.34-30.50L247.34-30.50L248.09-30.50L248.09-30.50Q250.69-30.50 251.44-28.03L251.44-28.03ZM293.38-4.06L293.38-4.06L294.31-4.06L294.31-4.06Q297.44-4.06 299.61-7.03L299.61-7.03L299.61-7.03Q301.78-10 301.78-15.22L301.78-15.22L301.78-17.34L301.78-17.34Q301.78-21.84 299.95-24.52L299.95-24.52L299.95-24.52Q298.13-27.19 295.44-27.19L295.44-27.19L294.53-27.19L294.53-27.19Q291.38-27.19 289.31-24.63L289.31-24.63L289.31-24.63Q287.88-22.81 287.88-19.38L287.88-19.38L287.88-19.38Q287.78-18.44 287.78-18.09L287.78-18.09L287.72-17.47L287.69-16.81L287.69-16.16L287.66-15.16L287.66-12.88L287.66-12.88Q287.66-7.72 289-5.89L289-5.89L289-5.89Q290.34-4.06 293.38-4.06ZM281.56-8.34L281.56-8.34L281.56-13.91L281.59-14.66L281.59-18.28L281.63-19.03L281.63-20.50L281.66-21.94L281.66-21.94Q281.66-24.13 281.66-26.34L281.66-26.34L281.69-27.84L281.69-29.31L281.72-30.78L281.72-32.25L281.72-32.25Q281.72-36.66 281.58-37.89L281.58-37.89L281.58-37.89Q281.44-39.13 280.95-40.61L280.95-40.61L280.95-40.61Q280.47-42.09 280.47-42.53L280.47-42.53L280.47-43.13L280.47-43.13Q280.47-45.19 283.25-45.19L283.25-45.19L283.88-45.19L283.88-45.19Q286.63-45.19 287.38-43.58L287.38-43.58L287.38-43.58Q288.13-41.97 288.13-37.06L288.13-37.06L288.13-37.06Q288.13-32.16 288.44-30.75L288.44-30.75L288.44-30.75Q288.75-29.34 289.75-29.34L289.75-29.34L289.75-29.34Q290.47-29.34 292.72-29.92L292.72-29.92L292.72-29.92Q294.97-30.50 297.22-30.50L297.22-30.50L297.22-30.50Q299.47-30.50 301.83-29.27L301.83-29.27L301.83-29.27Q304.19-28.03 305.69-25.75L305.69-25.75L305.69-25.75Q308.53-21.47 308.53-15.59L308.53-15.59L308.50-14.84L308.50-14.09L308.50-14.09Q308.50-11.13 307.34-8.34L307.34-8.34L307.34-8.34Q305-2.75 300-0.84L300-0.84L300-0.84Q297.69 0.03 295.22 0.03L295.22 0.03L294.53 0.03L294.53 0.03Q292.72 0.03 290.47-0.63L290.47-0.63L290.47-0.63Q288.22-1.28 287.03-1.28L287.03-1.28L284.94-1.03L284.94-1.03Q282.22-1.03 281.63-3.59L281.63-3.59L281.63-3.59Q281.56-3.88 281.56-8.34Z" fill="#ccc" style="--darkreader-inline-fill: #35393b;" data-darkreader-inline-fill=""></path></g></g><style>text {
  font-size: 64px;
  font-family: Arial Black;
  dominant-baseline: central;
  text-anchor: middle;
}</style><style class="darkreader darkreader--sync" media="screen"></style></svg>